<svg width="18" height="18" viewBox="0 0 18 18" fill="none" xmlns="http://www.w3.org/2000/svg">
<path fill-rule="evenodd" clip-rule="evenodd" d="M9 0C4.02944 0 0 4.02944 0 9C0 13.9706 4.02944 18 9 18C13.9706 18 18 13.9706 18 9C18 4.02944 13.9706 0 9 0ZM9.69231 3.46154C9.69231 3.07919 9.38235 2.76923 9 2.76923C8.61765 2.76923 8.30769 3.07919 8.30769 3.46154V9C8.30769 9.38235 8.61765 9.69231 9 9.69231H13.1538C13.5362 9.69231 13.8462 9.38235 13.8462 9C13.8462 8.61765 13.5362 8.30769 13.1538 8.30769H9.69231V3.46154Z" fill="#EC631B"/>
</svg>
