<svg width="24" height="24" viewBox="0 0 24 24" fill="none" xmlns="http://www.w3.org/2000/svg">
<path d="M21.1667 14.3888V19.1111C21.1667 20.3271 20.2923 21.3732 19.0868 21.5333C16.7683 21.8411 14.4027 22 12 22C9.5973 22 7.23171 21.8411 4.91316 21.5333C3.70766 21.3732 2.83333 20.3271 2.83333 19.1111V14.3888M21.1667 14.3888C21.691 13.9418 22 13.2654 22 12.5432V8.33965C22 7.13861 21.1468 6.10091 19.959 5.92318C18.7085 5.73608 17.4439 5.59239 16.1667 5.49369M21.1667 14.3888C20.9515 14.5722 20.7002 14.7169 20.419 14.8104C17.7726 15.6903 14.9419 16.1667 12 16.1667C9.0581 16.1667 6.22744 15.6903 3.58098 14.8104C3.29983 14.7169 3.04845 14.5722 2.83333 14.3888M2.83333 14.3888C2.30898 13.9418 2 13.2654 2 12.5432V8.33965C2 7.13861 2.85323 6.10091 4.04105 5.92318C5.29148 5.73608 6.5561 5.59239 7.83333 5.49369M16.1667 5.49369V4.5C16.1667 3.11929 15.0474 2 13.6667 2H10.3333C8.95262 2 7.83333 3.11929 7.83333 4.5V5.49369M16.1667 5.49369C14.7917 5.38744 13.4022 5.33333 12 5.33333C10.5978 5.33333 9.20827 5.38744 7.83333 5.49369M12 12.8333H12.0083V12.8417H12V12.8333Z" stroke="#EC631B" stroke-width="1.7" stroke-linecap="round" stroke-linejoin="round"/>
</svg>
