<svg width="17" height="23" viewBox="0 0 17 23" fill="none" xmlns="http://www.w3.org/2000/svg">
<path fill-rule="evenodd" clip-rule="evenodd" d="M8.5 0C8.92756 0 9.27419 0.359217 9.27419 0.802326V3.2093H13.1784C13.6324 3.20928 14.024 3.20927 14.3454 3.23945C14.6851 3.27137 15.0216 3.34203 15.3387 3.53177C15.6917 3.74303 15.985 4.04689 16.1889 4.41279C16.3719 4.74143 16.4401 5.09014 16.4709 5.44228C16.5 5.7753 16.5 6.18112 16.5 6.65159V6.7205C16.5 7.19098 16.5 7.59679 16.4709 7.92981C16.4401 8.28196 16.3719 8.63066 16.1889 8.9593C15.985 9.32521 15.6917 9.62908 15.3387 9.84036C15.0216 10.03 14.6851 10.1007 14.3454 10.1326C14.024 10.1628 13.6324 10.1628 13.1784 10.1628H9.27419V12.8372H11.1139C11.5679 12.8372 11.9595 12.8372 12.2809 12.8674C12.6206 12.8993 12.9571 12.97 13.2742 13.1596C13.6272 13.3709 13.9205 13.6748 14.1244 14.0407C14.3074 14.3693 14.3756 14.7181 14.4064 15.0701C14.4355 15.4032 14.4355 15.809 14.4355 16.2795V16.3484C14.4355 16.8189 14.4355 17.2248 14.4064 17.5578C14.3756 17.9098 14.3074 18.2586 14.1244 18.5872C13.9205 18.9531 13.6272 19.257 13.2742 19.4683C12.9571 19.6579 12.6206 19.7287 12.2809 19.7605C11.9595 19.7907 11.5679 19.7907 11.1139 19.7907H9.27419V22.1977C9.27419 22.6408 8.92756 23 8.5 23C8.07244 23 7.72581 22.6408 7.72581 22.1977V19.7907H5.88607C5.4321 19.7907 5.04053 19.7907 4.7192 19.7605C4.3794 19.7287 4.04293 19.6579 3.72581 19.4683C3.37273 19.257 3.07953 18.9531 2.87568 18.5872C2.6926 18.2586 2.62441 17.9098 2.59361 17.5578C2.56449 17.2248 2.5645 16.8189 2.56452 16.3484V16.2795C2.5645 15.809 2.56449 15.4032 2.59361 15.0701C2.62441 14.7181 2.6926 14.3693 2.87568 14.0407C3.07953 13.6748 3.37273 13.3709 3.72581 13.1596C4.04293 12.97 4.3794 12.8993 4.7192 12.8674C5.04054 12.8372 5.43213 12.8372 5.88611 12.8372H7.72581V10.1628H3.8216C3.36761 10.1628 2.97603 10.1628 2.65468 10.1326C2.31489 10.1007 1.97841 10.03 1.66129 9.84036C1.30822 9.62908 1.01502 9.32521 0.811165 8.9593C0.628073 8.63066 0.559893 8.28196 0.52909 7.92981C0.49997 7.5968 0.49998 7.19099 0.500001 6.72051V6.65158C0.49998 6.18111 0.49997 5.77529 0.52909 5.44228C0.559893 5.09014 0.628073 4.74143 0.811165 4.41279C1.01502 4.04689 1.30822 3.74303 1.66129 3.53177C1.97841 3.34203 2.31489 3.27137 2.65468 3.23945C2.97602 3.20927 3.3676 3.20928 3.82158 3.2093C3.83263 3.2093 3.84371 3.2093 3.85484 3.2093H7.72581V0.802326C7.72581 0.359217 8.07244 0 8.5 0ZM3.85484 4.81395C3.35821 4.81395 3.0375 4.81472 2.79445 4.83755C2.56204 4.85938 2.47766 4.89621 2.43548 4.92144C2.3178 4.99187 2.22006 5.09315 2.15211 5.21512C2.12776 5.25883 2.09223 5.34627 2.07116 5.58712C2.04913 5.839 2.04839 6.17137 2.04839 6.68605C2.04839 7.20072 2.04913 7.53309 2.07116 7.78498C2.09223 8.02582 2.12776 8.11327 2.15211 8.15698C2.22006 8.27894 2.3178 8.38023 2.43548 8.45065C2.47767 8.47589 2.56204 8.51272 2.79445 8.53454C3.0375 8.55737 3.35821 8.55814 3.85484 8.55814H13.1452C13.6418 8.55814 13.9625 8.55737 14.2056 8.53454C14.438 8.51272 14.5223 8.47589 14.5645 8.45065C14.6822 8.38023 14.7799 8.27894 14.8479 8.15698C14.8722 8.11327 14.9077 8.02582 14.9288 7.78497C14.9509 7.53309 14.9516 7.20072 14.9516 6.68605C14.9516 6.17137 14.9509 5.839 14.9288 5.58713C14.9077 5.34627 14.8722 5.25883 14.8479 5.21512C14.7799 5.09315 14.6822 4.99187 14.5645 4.92144C14.5223 4.89621 14.438 4.85938 14.2056 4.83755C13.9625 4.81472 13.6418 4.81395 13.1452 4.81395H3.85484ZM5.91936 14.4419C5.42273 14.4419 5.10201 14.4426 4.85897 14.4655C4.62656 14.4873 4.54218 14.5241 4.5 14.5494C4.38231 14.6198 4.28458 14.7211 4.21663 14.843C4.19227 14.8868 4.15674 14.9742 4.13568 15.215C4.11365 15.4669 4.1129 15.7993 4.1129 16.314C4.1129 16.8286 4.11365 17.161 4.13568 17.4129C4.15674 17.6537 4.19227 17.7411 4.21663 17.7849C4.28458 17.9068 4.38231 18.0081 4.5 18.0785C4.54218 18.1038 4.62656 18.1406 4.85897 18.1624C5.10201 18.1853 5.42273 18.186 5.91936 18.186H11.0806C11.5773 18.186 11.898 18.1853 12.1411 18.1624C12.3734 18.1406 12.4578 18.1038 12.5 18.0785C12.6177 18.0081 12.7154 17.9068 12.7834 17.7849C12.8077 17.7411 12.8432 17.6537 12.8643 17.4129C12.8864 17.161 12.8871 16.8286 12.8871 16.314C12.8871 15.7993 12.8864 15.4669 12.8643 15.215C12.8432 14.9742 12.8077 14.8868 12.7834 14.843C12.7154 14.7211 12.6177 14.6198 12.5 14.5494C12.4578 14.5241 12.3734 14.4873 12.1411 14.4655C11.898 14.4426 11.5773 14.4419 11.0806 14.4419H5.91936Z" fill="#1F2937" fill-opacity="0.8"/>
</svg>
