<svg width="23" height="23" viewBox="0 0 23 23" fill="none" xmlns="http://www.w3.org/2000/svg">
<g clip-path="url(#clip0_674_1409)">
<path d="M13.8281 10.9572L20.0156 6.14473C20.1172 6.0657 20.2389 6.01677 20.367 6.00353C20.495 5.99028 20.6242 6.01325 20.7398 6.0698C20.8554 6.12636 20.9529 6.21425 21.021 6.32345C21.0891 6.43266 21.1252 6.55879 21.1252 6.68751V16.3125C21.1253 16.4413 21.0892 16.5674 21.0211 16.6767C20.953 16.786 20.8556 16.8739 20.74 16.9305C20.6243 16.9871 20.4951 17.0101 20.3671 16.9968C20.239 16.9836 20.1172 16.9347 20.0156 16.8556L13.8281 12.0431C13.7454 11.9789 13.6785 11.8965 13.6325 11.8025C13.5864 11.7084 13.5625 11.6051 13.5625 11.5003C13.5625 11.3956 13.5864 11.2922 13.6325 11.1982C13.6785 11.1041 13.7454 11.0215 13.8281 10.9572Z" fill="#1F2937" fill-opacity="0.8"/>
<path d="M10.8125 21.125H12.1875L12.1875 1.875H10.8125L10.8125 21.125Z" fill="#1F2937" fill-opacity="0.8"/>
<path d="M9.4375 11.5C9.43752 11.6047 9.41363 11.7081 9.36764 11.8022C9.32165 11.8964 9.25478 11.9788 9.17213 12.0431L2.98463 16.8556C2.883 16.9347 2.76123 16.9836 2.63316 16.9968C2.5051 17.0101 2.37589 16.9871 2.26025 16.9305C2.14462 16.8739 2.0472 16.7859 1.97909 16.6767C1.91097 16.5674 1.87491 16.4412 1.875 16.3125V6.68749C1.87491 6.55874 1.91097 6.43256 1.97909 6.3233C2.0472 6.21405 2.14462 6.12611 2.26025 6.06951C2.37589 6.01291 2.5051 5.98992 2.63316 6.00315C2.76123 6.01639 2.883 6.06531 2.98463 6.14436L9.17213 10.9569C9.25478 11.0212 9.32165 11.1036 9.36764 11.1977C9.41363 11.2919 9.43752 11.3952 9.4375 11.5ZM3.25 14.907L7.63013 11.5L3.25 8.09301V14.907Z" fill="#1F2937" fill-opacity="0.8"/>
</g>
<defs>
<clipPath id="clip0_674_1409">
<rect width="22" height="22" fill="white" transform="translate(0.5 0.5)"/>
</clipPath>
</defs>
</svg>
