<svg width="23" height="23" viewBox="0 0 23 23" fill="none" xmlns="http://www.w3.org/2000/svg">
<path d="M20.125 1.91663V21.0833" stroke="#1F2937" stroke-opacity="0.8" stroke-width="1.6" stroke-linecap="round"/>
<path d="M16.292 7.18746C16.292 6.29178 16.292 5.84395 16.0994 5.51038C15.9732 5.29185 15.7918 5.11038 15.5732 4.98421C15.2397 4.79163 14.7918 4.79163 13.8962 4.79163H5.27116C4.3755 4.79163 3.92767 4.79163 3.59408 4.98421C3.37558 5.11038 3.19407 5.29185 3.06795 5.51038C2.87533 5.84395 2.87533 6.29178 2.87533 7.18746C2.87533 8.08314 2.87533 8.53097 3.06795 8.86454C3.19407 9.08307 3.37558 9.26454 3.59408 9.39071C3.92767 9.58329 4.3755 9.58329 5.27116 9.58329H13.8962C14.7918 9.58329 15.2397 9.58329 15.5732 9.39071C15.7918 9.26454 15.9732 9.08307 16.0994 8.86454C16.292 8.53097 16.292 8.08314 16.292 7.18746Z" stroke="#1F2937" stroke-opacity="0.8" stroke-width="1.6"/>
<path d="M16.292 15.8125C16.292 14.9168 16.292 14.469 16.0994 14.1354C15.9732 13.9169 15.7918 13.7354 15.5732 13.6093C15.2397 13.4166 14.7918 13.4166 13.8962 13.4166H8.14616C7.2505 13.4166 6.80267 13.4166 6.46908 13.6093C6.25058 13.7354 6.06907 13.9169 5.94295 14.1354C5.75033 14.469 5.75033 14.9168 5.75033 15.8125C5.75033 16.7081 5.75033 17.1559 5.94295 17.4895C6.06907 17.708 6.25058 17.8896 6.46908 18.0157C6.80267 18.2083 7.2505 18.2083 8.14616 18.2083H13.8962C14.7918 18.2083 15.2397 18.2083 15.5732 18.0157C15.7918 17.8896 15.9732 17.708 16.0994 17.4895C16.292 17.1559 16.292 16.7081 16.292 15.8125Z" stroke="#1F2937" stroke-opacity="0.8" stroke-width="1.6"/>
</svg>
