<svg width="23" height="23" viewBox="0 0 23 23" fill="none" xmlns="http://www.w3.org/2000/svg">
<path d="M2.875 1.91663V21.0833" stroke="#1F2937" stroke-opacity="0.8" stroke-width="1.6" stroke-linecap="round"/>
<path d="M6.70801 7.18746C6.70801 6.29178 6.70801 5.84395 6.90059 5.51038C7.02676 5.29185 7.20823 5.11038 7.42676 4.98421C7.76033 4.79163 8.20816 4.79163 9.10384 4.79163H17.7288C18.6245 4.79163 19.0723 4.79163 19.4059 4.98421C19.6244 5.11038 19.8059 5.29185 19.932 5.51038C20.1247 5.84395 20.1247 6.29178 20.1247 7.18746C20.1247 8.08314 20.1247 8.53097 19.932 8.86454C19.8059 9.08307 19.6244 9.26454 19.4059 9.39071C19.0723 9.58329 18.6245 9.58329 17.7288 9.58329H9.10384C8.20816 9.58329 7.76033 9.58329 7.42676 9.39071C7.20823 9.26454 7.02676 9.08307 6.90059 8.86454C6.70801 8.53097 6.70801 8.08314 6.70801 7.18746Z" stroke="#1F2937" stroke-opacity="0.8" stroke-width="1.6"/>
<path d="M6.70801 15.8125C6.70801 14.9168 6.70801 14.469 6.90059 14.1354C7.02676 13.9169 7.20823 13.7354 7.42676 13.6093C7.76033 13.4166 8.20816 13.4166 9.10384 13.4166H14.8538C15.7495 13.4166 16.1973 13.4166 16.5309 13.6093C16.7494 13.7354 16.9309 13.9169 17.057 14.1354C17.2497 14.469 17.2497 14.9168 17.2497 15.8125C17.2497 16.7081 17.2497 17.1559 17.057 17.4895C16.9309 17.708 16.7494 17.8896 16.5309 18.0157C16.1973 18.2083 15.7495 18.2083 14.8538 18.2083H9.10384C8.20816 18.2083 7.76033 18.2083 7.42676 18.0157C7.20823 17.8896 7.02676 17.708 6.90059 17.4895C6.70801 17.1559 6.70801 16.7081 6.70801 15.8125Z" stroke="#1F2937" stroke-opacity="0.8" stroke-width="1.6"/>
</svg>
