<svg width="60" height="52" viewBox="0 0 60 52" fill="none" xmlns="http://www.w3.org/2000/svg">
<path d="M60.0002 8.59317C59.9002 9.79998 59.7264 10.7219 59.7002 10.9C58.9465 16.0359 57.2843 19.0883 53.9944 23.2375C52.0814 25.6502 49.9552 27.7227 47.1422 29.0223C46.6867 29.2327 46.1984 29.3722 45.7253 29.5444C45.6776 29.4668 45.6298 29.3892 45.582 29.3116C46.5661 28.5589 47.5485 27.8041 48.5344 27.0539C50.6166 25.4694 52.1037 23.3818 53.4178 21.1694C55.0731 18.3829 55.9238 15.3237 56.1896 12.1108C56.3792 9.81865 56.462 7.51777 56.6067 5.22169C56.6242 4.94337 56.6462 4.59992 56.8088 4.40684C57.8051 3.224 58.8425 2.07581 59.9332 0.901489C60.0002 3.42442 60.0002 5.96193 60.0002 8.59317Z" fill="#EC631B"/>
<path d="M0 0.78064C1.07605 2.05175 2.16466 3.40707 3.21447 4.79181C3.37014 4.99715 3.38276 5.33978 3.39358 5.62151C3.47219 7.66839 3.33472 9.74744 3.65306 11.7549C4.00758 13.9904 4.68153 16.1903 5.38086 18.3525C6.23417 20.9907 7.75133 23.3092 9.60897 25.326C10.8552 26.679 12.44 27.72 13.8699 28.9048C13.9337 28.9577 13.9637 29.0515 14.0776 29.2375C13.815 29.2375 13.6143 29.297 13.4776 29.2286C11.2961 28.1367 9.19796 26.953 7.70032 24.9147C6.88892 23.8103 5.84927 22.8752 5.01869 21.7831C3.36513 19.6088 2.3639 17.0976 1.62005 14.4997C1.09853 12.6784 0.825281 12.2493 0.399999 10.4C0.392456 10.3672 0.0911386 9.09998 0.0844471 8.88824C5.96044e-09 6.21606 0 3.54522 0 0.78064Z" fill="#EC631B"/>
<path d="M11.8007 15.6872C10.5204 14.6186 9.25225 13.6165 8.11955 12.4796C6.46569 10.8195 5.14419 8.90725 4.31 6.69354C4.22359 6.46425 4.21989 6.20378 4.13428 5.70325C5.4994 6.70659 6.63806 7.61208 7.84453 8.4158C10.2815 10.0392 12.7493 11.6166 15.2155 13.1958C17.9875 14.971 20.7436 16.7542 22.6035 19.5879C24.1494 21.943 24.9618 24.5266 24.9849 27.3319C24.9984 28.975 24.8788 30.6201 24.7874 32.2626C24.7713 32.5531 24.5993 32.8349 24.2727 33.1123C23.7817 31.4407 23.3059 29.7645 22.7963 28.0986C21.8392 24.9692 20.3206 22.2146 17.6305 20.2004C15.6801 18.74 13.7903 17.1987 11.8007 15.6872Z" fill="#EC631B"/>
<path d="M37.4513 27.3589C36.8548 29.3118 36.3029 31.1955 35.751 33.0791C35.6289 33.0591 35.5069 33.039 35.3849 33.019C35.1898 31.4357 34.8132 29.8496 34.837 28.2696C34.8886 24.8401 35.8599 21.6867 38.0345 18.9256C40.2399 16.1256 43.1004 14.1849 46.0637 12.3212C49.1692 10.3681 52.2111 8.31373 55.282 6.30547C55.4894 6.16986 55.7068 6.0497 55.9196 5.92236C55.9924 5.97277 56.0652 6.02318 56.1379 6.07359C55.1895 7.61444 54.3477 9.2347 53.2712 10.6802C50.75 14.0657 47.316 16.4463 43.9542 18.9101C41.8997 20.4157 39.9311 22.0722 38.6756 24.3557C38.1714 25.2727 37.8827 26.3081 37.4513 27.3589Z" fill="#EC631B"/>
<path d="M36.7451 46.3324C32.4098 39.3827 31.2456 31.7072 30.9351 23.8188C31.0481 23.7858 31.1612 23.7527 31.2743 23.7196C31.5159 24.5523 31.8435 25.3707 31.9847 26.2201C32.7735 30.9627 33.9622 35.5836 36.2189 39.858C36.9361 41.2164 37.8591 42.4737 38.7627 43.7232C39.2721 44.4275 39.3913 44.98 38.6385 45.5522C38.2505 45.8472 37.9165 46.2218 37.5045 46.4723C37.3456 46.5688 37.0381 46.4209 36.7451 46.3324Z" fill="#EC631B"/>
<path d="M24.0585 39.54C26.3312 34.4311 27.7246 29.1277 28.8487 23.7416C29.433 29.6079 26.4336 44.2694 22.6772 46.6763C22.1892 46.1827 21.7339 45.6424 21.1975 45.2005C20.5734 44.6864 20.7702 44.1962 21.213 43.7987C22.5111 42.6335 23.2852 41.1379 24.0585 39.54Z" fill="#EC631B"/>
<path d="M48.9304 28.8386C50.6926 27.436 52.3934 26.0757 54.0942 24.7153C54.1765 24.7697 54.2588 24.8241 54.3411 24.8785C53.7518 25.7895 53.2142 26.7394 52.5639 27.6045C50.312 30.5998 47.2935 32.5046 43.6543 33.2124C41.5086 33.6297 39.3289 33.312 37.312 31.8282C39.4771 31.6935 41.5668 31.8532 43.4898 31.3614C45.3713 30.8801 47.0828 29.7347 48.9304 28.8386Z" fill="#EC631B"/>
<path d="M7.84507 28.0316C7.00263 27.0182 6.13361 26.0979 5.94092 24.5676C7.38986 25.7871 8.65534 26.9158 9.98726 27.9599C12.8415 30.1972 15.9061 31.9167 19.7187 31.6951C20.6644 31.6402 21.616 31.6869 22.5649 31.6869C22.5945 31.8034 22.6241 31.9198 22.6538 32.0363C21.6361 32.3864 20.6419 32.8504 19.5965 33.0665C15.6097 33.8909 12.3698 32.3523 9.52356 29.7045C8.96298 29.183 8.43667 28.6247 7.84507 28.0316Z" fill="#EC631B"/>
<path d="M35.7993 47.2843C35.7935 47.5769 35.8634 47.918 35.7548 47.9901C35.0368 48.4664 34.2804 48.8849 33.5398 49.3203C31.9114 46.865 30.633 39.6906 30.9397 34.1417C32.3101 38.5917 33.0368 43.2874 35.7993 47.2843Z" fill="#EC631B"/>
<path d="M28.8033 35.5218C28.8851 35.3441 28.9635 35.2481 29.0687 35.1193C29.761 39.0066 28.075 47.5779 26.3012 49.255C25.7401 48.9022 25.1528 48.5774 24.615 48.1848C23.7412 47.547 24.3674 46.7917 24.7132 46.3247C26.2242 44.2839 26.8039 41.8744 27.5924 39.5464C28.0331 38.2451 28.3999 36.9187 28.8033 35.5218Z" fill="#EC631B"/>
<path d="M27.9467 18.1627C27.7875 16.5147 28.1641 15.034 28.7793 13.6081C29.1203 12.8177 29.5209 12.053 29.9501 11.1615C31.9841 13.9363 32.4204 16.885 31.537 20.1061C31.0946 18.6175 30.6522 17.1288 30.2098 15.6402C30.0721 15.638 29.9345 15.6359 29.7968 15.6337C29.371 17.1752 28.9452 18.7166 28.5194 20.2581C28.4494 20.266 28.3794 20.274 28.3093 20.282C28.2036 19.6007 28.098 18.9194 27.9467 18.1627Z" fill="#EC631B"/>
<path d="M29 48.9219C29.2723 46.1283 29.5447 43.4303 29.817 40.7322C29.9559 40.7383 30.0948 40.7443 30.2338 40.7504C30.5152 44.2146 30.7966 47.6789 31.0843 51.2193C30.3656 51.2193 29.7503 51.2193 29 51.2193C29 50.5194 29 49.7684 29 48.9219Z" fill="#EC631B"/>
</svg>
