<svg width="24" height="30" viewBox="0 0 24 30" fill="none" xmlns="http://www.w3.org/2000/svg">
<path d="M17.0008 7C17.0008 9.76142 14.7618 12 12 12C9.23816 12 6.99924 9.76142 6.99924 7C6.99924 4.23858 9.23816 2 12 2C14.7618 2 17.0008 4.23858 17.0008 7Z" fill="#9DA1AA"/>
<path d="M2 25.8243C2.09375 20.3825 6.535 16 12 16C17.4651 16 21.9065 20.3827 22 25.8247C18.9558 27.2214 15.5691 28 12.0004 28C8.43145 28 5.04441 27.2212 2 25.8243Z" fill="#9DA1AA"/>
<path d="M17.0008 7C17.0008 9.76142 14.7618 12 12 12C9.23816 12 6.99924 9.76142 6.99924 7C6.99924 4.23858 9.23816 2 12 2C14.7618 2 17.0008 4.23858 17.0008 7Z" stroke="#9DA1AA" stroke-width="2.3" stroke-linecap="round" stroke-linejoin="round"/>
<path d="M2 25.8243C2.09375 20.3825 6.535 16 12 16C17.4651 16 21.9065 20.3827 22 25.8247C18.9558 27.2214 15.5691 28 12.0004 28C8.43145 28 5.04441 27.2212 2 25.8243Z" stroke="#9DA1AA" stroke-width="2.3" stroke-linecap="round" stroke-linejoin="round"/>
</svg>
