<svg width="60" height="52" viewBox="0 0 60 52" fill="none" xmlns="http://www.w3.org/2000/svg">
<path d="M60.0002 8.59354C59.9002 9.80035 59.7264 10.7222 59.7002 10.9003C58.9465 16.0362 57.2843 19.0887 53.9944 23.2379C52.0814 25.6506 49.9552 27.723 47.1422 29.0227C46.6867 29.2331 46.1984 29.3725 45.7253 29.5448C45.6776 29.4672 45.6298 29.3896 45.582 29.3119C46.5661 28.5592 47.5485 27.8045 48.5344 27.0542C50.6166 25.4697 52.1037 23.3821 53.4178 21.1698C55.0731 18.3833 55.9238 15.3241 56.1896 12.1111C56.3792 9.81902 56.462 7.51814 56.6067 5.22206C56.6242 4.94373 56.6462 4.60028 56.8088 4.4072C57.8051 3.22437 58.8425 2.07618 59.9332 0.901855C60.0002 3.42478 60.0002 5.96229 60.0002 8.59354Z" fill="white"/>
<path d="M0 0.780762C1.07605 2.05187 2.16466 3.40719 3.21447 4.79193C3.37014 4.99727 3.38276 5.3399 3.39358 5.62163C3.47219 7.66851 3.33472 9.74756 3.65306 11.755C4.00758 13.9906 4.68153 16.1904 5.38086 18.3526C6.23417 20.9909 7.75133 23.3093 9.60897 25.3261C10.8552 26.6791 12.44 27.7201 13.8699 28.9049C13.9337 28.9578 13.9637 29.0516 14.0776 29.2376C13.815 29.2376 13.6143 29.2972 13.4776 29.2287C11.2961 28.1368 9.19796 26.9531 7.70032 24.9148C6.88892 23.8104 5.84927 22.8754 5.01869 21.7832C3.36513 19.6089 2.3639 17.0977 1.62005 14.4998C1.09853 12.6785 0.825281 12.2494 0.399999 10.4001C0.392456 10.3673 0.0911386 9.1001 0.0844471 8.88836C5.96044e-09 6.21619 0 3.54534 0 0.780762Z" fill="white"/>
<path d="M11.8007 15.6871C10.5204 14.6185 9.25225 13.6164 8.11955 12.4795C6.46569 10.8194 5.14419 8.90713 4.31 6.69342C4.22359 6.46412 4.21989 6.20366 4.13428 5.70312C5.4994 6.70646 6.63806 7.61196 7.84453 8.41567C10.2815 10.0391 12.7493 11.6165 15.2155 13.1957C17.9875 14.9709 20.7436 16.7541 22.6035 19.5877C24.1494 21.9429 24.9618 24.5265 24.9849 27.3317C24.9984 28.9749 24.8788 30.62 24.7874 32.2625C24.7713 32.553 24.5993 32.8348 24.2727 33.1122C23.7817 31.4406 23.3059 29.7644 22.7963 28.0985C21.8392 24.969 20.3206 22.2144 17.6305 20.2002C15.6801 18.7399 13.7903 17.1985 11.8007 15.6871Z" fill="white"/>
<path d="M37.4513 27.3589C36.8548 29.3118 36.3029 31.1955 35.751 33.0791C35.6289 33.0591 35.5069 33.039 35.3849 33.019C35.1898 31.4357 34.8132 29.8496 34.837 28.2696C34.8886 24.8401 35.8599 21.6867 38.0345 18.9256C40.2399 16.1256 43.1004 14.1849 46.0637 12.3212C49.1692 10.3681 52.2111 8.31373 55.282 6.30547C55.4894 6.16986 55.7068 6.0497 55.9196 5.92236C55.9924 5.97277 56.0652 6.02318 56.1379 6.07359C55.1895 7.61444 54.3477 9.2347 53.2712 10.6802C50.75 14.0657 47.316 16.4463 43.9542 18.9101C41.8997 20.4157 39.9311 22.0722 38.6756 24.3557C38.1714 25.2727 37.8827 26.3081 37.4513 27.3589Z" fill="white"/>
<path d="M36.7451 46.3325C32.4098 39.3828 31.2456 31.7074 30.9351 23.819C31.0481 23.7859 31.1612 23.7528 31.2743 23.7197C31.5159 24.5524 31.8435 25.3709 31.9847 26.2203C32.7735 30.9628 33.9622 35.5837 36.2189 39.8581C36.9361 41.2165 37.8591 42.4738 38.7627 43.7233C39.2721 44.4276 39.3913 44.9801 38.6385 45.5524C38.2505 45.8473 37.9165 46.222 37.5045 46.4724C37.3456 46.569 37.0381 46.421 36.7451 46.3325Z" fill="white"/>
<path d="M24.0585 39.5401C26.3312 34.4313 27.7246 29.1278 28.8487 23.7417C29.433 29.608 26.4336 44.2695 22.6772 46.6764C22.1892 46.1828 21.7339 45.6425 21.1975 45.2006C20.5734 44.6865 20.7702 44.1963 21.213 43.7988C22.5111 42.6336 23.2852 41.138 24.0585 39.5401Z" fill="white"/>
<path d="M48.9304 28.8386C50.6926 27.436 52.3934 26.0757 54.0942 24.7153C54.1765 24.7697 54.2588 24.8241 54.3411 24.8785C53.7518 25.7895 53.2142 26.7394 52.5639 27.6045C50.312 30.5998 47.2935 32.5046 43.6543 33.2124C41.5086 33.6297 39.3289 33.312 37.312 31.8282C39.4771 31.6935 41.5668 31.8532 43.4898 31.3614C45.3713 30.8801 47.0828 29.7347 48.9304 28.8386Z" fill="white"/>
<path d="M7.84507 28.0318C7.00263 27.0185 6.13361 26.0981 5.94092 24.5679C7.38986 25.7873 8.65534 26.9161 9.98726 27.9601C12.8415 30.1974 15.9061 31.917 19.7187 31.6954C20.6644 31.6404 21.616 31.6872 22.5649 31.6872C22.5945 31.8036 22.6241 31.9201 22.6538 32.0365C21.6361 32.3866 20.6419 32.8506 19.5965 33.0668C15.6097 33.8912 12.3698 32.3525 9.52356 29.7047C8.96298 29.1833 8.43667 28.6249 7.84507 28.0318Z" fill="white"/>
<path d="M35.7993 47.2847C35.7935 47.5772 35.8634 47.9184 35.7548 47.9904C35.0368 48.4668 34.2804 48.8853 33.5398 49.3207C31.9114 46.8653 30.633 39.6909 30.9397 34.1421C32.3101 38.5921 33.0368 43.2878 35.7993 47.2847Z" fill="white"/>
<path d="M28.8033 35.5217C28.8851 35.3439 28.9635 35.248 29.0687 35.1191C29.761 39.0065 28.075 47.5778 26.3012 49.2548C25.7401 48.9021 25.1528 48.5773 24.615 48.1847C23.7412 47.5469 24.3674 46.7916 24.7132 46.3246C26.2242 44.2837 26.8039 41.8743 27.5924 39.5463C28.0331 38.245 28.3999 36.9186 28.8033 35.5217Z" fill="white"/>
<path d="M27.9467 18.1628C27.7875 16.5148 28.1641 15.0341 28.7793 13.6082C29.1203 12.8179 29.5209 12.0532 29.9501 11.1616C31.9841 13.9365 32.4204 16.8851 31.537 20.1062C31.0946 18.6176 30.6522 17.129 30.2098 15.6403C30.0721 15.6382 29.9345 15.636 29.7968 15.6338C29.371 17.1753 28.9452 18.7167 28.5194 20.2582C28.4494 20.2662 28.3794 20.2741 28.3093 20.2821C28.2036 19.6008 28.098 18.9195 27.9467 18.1628Z" fill="white"/>
<path d="M29 48.9222C29.2723 46.1286 29.5447 43.4305 29.817 40.7324C29.9559 40.7385 30.0948 40.7446 30.2338 40.7507C30.5152 44.2149 30.7966 47.6791 31.0843 51.2195C30.3656 51.2195 29.7503 51.2195 29 51.2195C29 50.5196 29 49.7686 29 48.9222Z" fill="white"/>
</svg>
