<svg width="20" height="20" viewBox="0 0 20 20" fill="none" xmlns="http://www.w3.org/2000/svg">
<path d="M6.05531 11.2324C7.75744 11.2324 9.13727 12.6123 9.13735 14.3145C9.13735 16.6974 7.20574 18.6297 4.82289 18.6299C3.22309 18.6299 1.82712 17.7584 1.08266 16.4678C0.969013 16.2707 0.97319 16.0271 1.0934 15.834C1.21356 15.641 1.43004 15.53 1.65688 15.5449C1.68448 15.5467 1.71295 15.5479 1.74086 15.5479C2.42156 15.5477 2.97328 14.9952 2.97328 14.3145C2.97336 12.6124 4.3532 11.2324 6.05531 11.2324ZM8.35902 8.34668C10.0379 8.99522 11.3731 10.3312 12.0221 12.0098C11.5706 12.3288 11.1025 12.6266 10.6168 12.8965L10.2028 13.126C9.7945 11.6988 8.671 10.5741 7.24379 10.166L7.47328 9.75391C7.7433 9.26788 8.03981 8.79858 8.35902 8.34668ZM17.4371 1.37012C18.3 1.37031 18.9995 2.06977 18.9996 2.93262C18.9996 3.24106 18.909 3.54315 18.7379 3.7998L15.9547 7.97363C15.2885 8.97292 14.5089 9.88623 13.6364 10.6992C12.8081 8.96581 11.4023 7.56121 9.6686 6.7334C10.4817 5.86037 11.3965 5.08145 12.3961 4.41504L16.5709 1.63281C16.8275 1.46189 17.1289 1.37017 17.4371 1.37012Z" fill="#EC631B"/>
</svg>
