<svg width="20" height="20" viewBox="0 0 20 20" fill="none" xmlns="http://www.w3.org/2000/svg">
<path d="M8.21887 13.5939C7.82563 12.6366 6.87524 11.9615 5.76528 11.9615C4.30341 11.9615 3.11833 13.1325 3.11833 14.5769C3.11833 15.6603 2.2295 16.5385 1.1331 16.5385C1.08837 16.5385 1.04399 16.537 1 16.5341C1.68588 17.7091 2.97035 18.5 4.44178 18.5C6.62836 18.5 8.40211 16.7535 8.41216 14.5954C8.4122 14.5892 8.41222 14.5831 8.41222 14.5769C8.41222 14.2292 8.34355 13.8974 8.21887 13.5939ZM8.21887 13.5939C9.27264 13.239 10.2749 12.764 11.2069 12.1819M6.75788 12.1593C7.11725 11.1157 7.59882 10.123 8.18921 9.20014M11.2069 12.1819C12.8661 11.1456 14.3024 9.77002 15.4095 8.12918L18.8294 3.06057C18.9406 2.89568 19 2.70194 19 2.50377C19 1.9494 18.5452 1.5 17.9841 1.5C17.7836 1.5 17.5875 1.55866 17.4206 1.66858L12.2908 5.04765C10.6302 6.14155 9.23799 7.56075 8.18921 9.20014M11.2069 12.1819C10.6089 10.8572 9.52987 9.7911 8.18921 9.20014" stroke="#1F2937" stroke-opacity="0.7" stroke-width="1.7" stroke-linecap="round" stroke-linejoin="round"/>
</svg>
